<svg width="924" height="72" viewBox="0 0 924 72" fill="none" xmlns="http://www.w3.org/2000/svg">
<path d="M0.75 0.75H1439.25V64C1439.25 68.0041 1436 71.25 1432 71.25H8.00002C3.99595 71.25 0.75 68.0041 0.75 64V0.75Z" fill="white"/>
<path d="M0.75 0.75H1439.25V64C1439.25 68.0041 1436 71.25 1432 71.25H8.00002C3.99595 71.25 0.75 68.0041 0.75 64V0.75Z" stroke="#111111" stroke-width="1.5"/>
<rect x="209" y="19" width="72" height="34" rx="17" fill="#EAC645"/>
<path d="M225.952 41V31.2H227.744V35.274H232.14V31.2H233.932V41H232.14V36.73H227.744V41H225.952ZM239.869 41.168C238.889 41.168 238.03 40.9533 237.293 40.524C236.565 40.0947 235.991 39.502 235.571 38.746C235.16 37.9807 234.955 37.0987 234.955 36.1C234.955 35.1013 235.16 34.224 235.571 33.468C235.991 32.7027 236.565 32.1053 237.293 31.676C238.03 31.2467 238.889 31.032 239.869 31.032C240.839 31.032 241.693 31.2467 242.431 31.676C243.168 32.1053 243.742 32.7027 244.153 33.468C244.563 34.224 244.769 35.1013 244.769 36.1C244.769 37.0987 244.563 37.9807 244.153 38.746C243.742 39.502 243.168 40.0947 242.431 40.524C241.693 40.9533 240.839 41.168 239.869 41.168ZM239.869 39.558C240.802 39.558 241.544 39.25 242.095 38.634C242.655 38.018 242.935 37.1733 242.935 36.1C242.935 35.0267 242.655 34.182 242.095 33.566C241.544 32.95 240.802 32.642 239.869 32.642C238.935 32.642 238.189 32.95 237.629 33.566C237.069 34.182 236.789 35.0267 236.789 36.1C236.789 37.1733 237.069 38.018 237.629 38.634C238.189 39.25 238.935 39.558 239.869 39.558ZM245.791 41V31.2H247.919L251.041 37.416L254.121 31.2H256.249V41H254.457V34.238L251.727 39.6H250.313L247.583 34.238V41H245.791ZM257.59 41V31.2H263.988V32.642H259.382V35.33H263.568V36.73H259.382V39.558H263.988V41H257.59Z" fill="#111111"/>
<path d="M309.228 41.168C308.509 41.168 307.879 41.042 307.338 40.79C306.797 40.538 306.372 40.1787 306.064 39.712C305.765 39.2453 305.611 38.69 305.602 38.046H307.17C307.179 38.5687 307.361 39.012 307.716 39.376C308.071 39.74 308.57 39.922 309.214 39.922C309.783 39.922 310.227 39.7867 310.544 39.516C310.871 39.236 311.034 38.8813 311.034 38.452C311.034 38.1067 310.955 37.8267 310.796 37.612C310.647 37.3973 310.437 37.22 310.166 37.08C309.905 36.94 309.601 36.814 309.256 36.702C308.911 36.59 308.547 36.4687 308.164 36.338C307.408 36.086 306.839 35.7593 306.456 35.358C306.083 34.9567 305.896 34.4293 305.896 33.776C305.887 33.2253 306.013 32.7447 306.274 32.334C306.545 31.9233 306.918 31.606 307.394 31.382C307.879 31.1487 308.444 31.032 309.088 31.032C309.723 31.032 310.278 31.1487 310.754 31.382C311.239 31.6153 311.617 31.942 311.888 32.362C312.159 32.7727 312.299 33.2533 312.308 33.804H310.74C310.74 33.552 310.675 33.314 310.544 33.09C310.413 32.8567 310.222 32.6653 309.97 32.516C309.718 32.3667 309.41 32.292 309.046 32.292C308.579 32.2827 308.192 32.3993 307.884 32.642C307.585 32.8847 307.436 33.2207 307.436 33.65C307.436 34.0327 307.548 34.3267 307.772 34.532C307.996 34.7373 308.304 34.91 308.696 35.05C309.088 35.1807 309.536 35.3347 310.04 35.512C310.525 35.6707 310.959 35.862 311.342 36.086C311.725 36.31 312.028 36.604 312.252 36.968C312.485 37.332 312.602 37.794 312.602 38.354C312.602 38.8487 312.476 39.3107 312.224 39.74C311.972 40.16 311.594 40.5053 311.09 40.776C310.586 41.0373 309.965 41.168 309.228 41.168ZM313.664 41V31.2H315.148V35.4H319.894V31.2H321.378V41H319.894V36.618H315.148V41H313.664ZM327.333 41.168C326.363 41.168 325.513 40.9533 324.785 40.524C324.057 40.0947 323.488 39.502 323.077 38.746C322.667 37.9807 322.461 37.0987 322.461 36.1C322.461 35.1013 322.667 34.224 323.077 33.468C323.488 32.7027 324.057 32.1053 324.785 31.676C325.513 31.2467 326.363 31.032 327.333 31.032C328.304 31.032 329.153 31.2467 329.881 31.676C330.609 32.1053 331.174 32.7027 331.575 33.468C331.986 34.224 332.191 35.1013 332.191 36.1C332.191 37.0987 331.986 37.9807 331.575 38.746C331.174 39.502 330.609 40.0947 329.881 40.524C329.153 40.9533 328.304 41.168 327.333 41.168ZM327.333 39.838C328.005 39.838 328.589 39.6887 329.083 39.39C329.587 39.0913 329.979 38.662 330.259 38.102C330.539 37.542 330.679 36.8747 330.679 36.1C330.679 35.3253 330.539 34.658 330.259 34.098C329.979 33.538 329.587 33.1087 329.083 32.81C328.589 32.5113 328.005 32.362 327.333 32.362C326.661 32.362 326.073 32.5113 325.569 32.81C325.065 33.1087 324.673 33.538 324.393 34.098C324.123 34.658 323.987 35.3253 323.987 36.1C323.987 36.8747 324.123 37.542 324.393 38.102C324.673 38.662 325.065 39.0913 325.569 39.39C326.073 39.6887 326.661 39.838 327.333 39.838ZM333.285 41V31.2H336.715C337.48 31.2 338.115 31.3307 338.619 31.592C339.123 31.844 339.496 32.194 339.739 32.642C339.991 33.0807 340.117 33.58 340.117 34.14C340.117 34.672 339.995 35.162 339.753 35.61C339.519 36.0487 339.151 36.3987 338.647 36.66C338.143 36.9213 337.499 37.052 336.715 37.052H334.769V41H333.285ZM334.769 35.834H336.645C337.345 35.834 337.844 35.6847 338.143 35.386C338.451 35.078 338.605 34.6627 338.605 34.14C338.605 33.5987 338.451 33.1787 338.143 32.88C337.844 32.572 337.345 32.418 336.645 32.418H334.769V35.834ZM341.024 41V31.2H344.454C345.219 31.2 345.854 31.3307 346.358 31.592C346.862 31.844 347.235 32.194 347.478 32.642C347.73 33.0807 347.856 33.58 347.856 34.14C347.856 34.672 347.734 35.162 347.492 35.61C347.258 36.0487 346.89 36.3987 346.386 36.66C345.882 36.9213 345.238 37.052 344.454 37.052H342.508V41H341.024ZM342.508 35.834H344.384C345.084 35.834 345.583 35.6847 345.882 35.386C346.19 35.078 346.344 34.6627 346.344 34.14C346.344 33.5987 346.19 33.1787 345.882 32.88C345.583 32.572 345.084 32.418 344.384 32.418H342.508V35.834ZM348.762 41V31.2H350.246V41H348.762ZM351.675 41V31.2H353.159L358.073 38.578V31.2H359.557V41H358.073L353.159 33.622V41H351.675ZM365.242 41.168C364.318 41.168 363.511 40.958 362.82 40.538C362.129 40.118 361.593 39.53 361.21 38.774C360.827 38.018 360.636 37.136 360.636 36.128C360.636 35.1293 360.832 34.2473 361.224 33.482C361.616 32.7167 362.171 32.1193 362.89 31.69C363.618 31.2513 364.477 31.032 365.466 31.032C366.586 31.032 367.519 31.3027 368.266 31.844C369.013 32.3853 369.498 33.132 369.722 34.084H368.042C367.893 33.5613 367.599 33.1507 367.16 32.852C366.721 32.5533 366.157 32.404 365.466 32.404C364.439 32.404 363.632 32.7353 363.044 33.398C362.456 34.0607 362.162 34.9753 362.162 36.142C362.162 37.3087 362.451 38.2187 363.03 38.872C363.609 39.5253 364.379 39.852 365.34 39.852C366.311 39.852 367.039 39.5767 367.524 39.026C368.019 38.4753 368.308 37.7427 368.392 36.828H365.732V35.68H369.89V41H368.532L368.406 39.558C368.079 40.0713 367.669 40.468 367.174 40.748C366.679 41.028 366.035 41.168 365.242 41.168ZM374.099 41V31.2H375.583V39.824H380.035V41H374.099ZM381.072 41V31.2H382.556V41H381.072ZM387.218 41.168C386.5 41.168 385.87 41.042 385.328 40.79C384.787 40.538 384.362 40.1787 384.054 39.712C383.756 39.2453 383.602 38.69 383.592 38.046H385.16C385.17 38.5687 385.352 39.012 385.706 39.376C386.061 39.74 386.56 39.922 387.204 39.922C387.774 39.922 388.217 39.7867 388.534 39.516C388.861 39.236 389.024 38.8813 389.024 38.452C389.024 38.1067 388.945 37.8267 388.786 37.612C388.637 37.3973 388.427 37.22 388.156 37.08C387.895 36.94 387.592 36.814 387.246 36.702C386.901 36.59 386.537 36.4687 386.154 36.338C385.398 36.086 384.829 35.7593 384.446 35.358C384.073 34.9567 383.886 34.4293 383.886 33.776C383.877 33.2253 384.003 32.7447 384.264 32.334C384.535 31.9233 384.908 31.606 385.384 31.382C385.87 31.1487 386.434 31.032 387.078 31.032C387.713 31.032 388.268 31.1487 388.744 31.382C389.23 31.6153 389.608 31.942 389.878 32.362C390.149 32.7727 390.289 33.2533 390.298 33.804H388.73C388.73 33.552 388.665 33.314 388.534 33.09C388.404 32.8567 388.212 32.6653 387.96 32.516C387.708 32.3667 387.4 32.292 387.036 32.292C386.57 32.2827 386.182 32.3993 385.874 32.642C385.576 32.8847 385.426 33.2207 385.426 33.65C385.426 34.0327 385.538 34.3267 385.762 34.532C385.986 34.7373 386.294 34.91 386.686 35.05C387.078 35.1807 387.526 35.3347 388.03 35.512C388.516 35.6707 388.95 35.862 389.332 36.086C389.715 36.31 390.018 36.604 390.242 36.968C390.476 37.332 390.592 37.794 390.592 38.354C390.592 38.8487 390.466 39.3107 390.214 39.74C389.962 40.16 389.584 40.5053 389.08 40.776C388.576 41.0373 387.956 41.168 387.218 41.168ZM393.773 41V32.404H390.875V31.2H398.141V32.404H395.257V41H393.773Z" fill="#111111"/>
<path d="M418.833 31.8334H416.333V31C416.333 30.116 415.982 29.2681 415.357 28.643C414.732 28.0179 413.884 27.6667 413 27.6667C412.116 27.6667 411.268 28.0179 410.643 28.643C410.018 29.2681 409.667 30.116 409.667 31V31.8334H407.167C406.946 31.8334 406.734 31.9212 406.577 32.0774C406.421 32.2337 406.333 32.4457 406.333 32.6667V41.8334C406.333 42.4964 406.597 43.1323 407.065 43.6011C407.534 44.07 408.17 44.3334 408.833 44.3334H417.167C417.83 44.3334 418.466 44.07 418.934 43.6011C419.403 43.1323 419.667 42.4964 419.667 41.8334V32.6667C419.667 32.4457 419.579 32.2337 419.423 32.0774C419.266 31.9212 419.054 31.8334 418.833 31.8334ZM411.333 31C411.333 30.558 411.509 30.1341 411.821 29.8215C412.134 29.5089 412.558 29.3334 413 29.3334C413.442 29.3334 413.866 29.5089 414.178 29.8215C414.491 30.1341 414.667 30.558 414.667 31V31.8334H411.333V31ZM418 41.8334C418 42.0544 417.912 42.2663 417.756 42.4226C417.6 42.5789 417.388 42.6667 417.167 42.6667H408.833C408.612 42.6667 408.4 42.5789 408.244 42.4226C408.088 42.2663 408 42.0544 408 41.8334V33.5H409.667V34.3334C409.667 34.5544 409.754 34.7663 409.911 34.9226C410.067 35.0789 410.279 35.1667 410.5 35.1667C410.721 35.1667 410.933 35.0789 411.089 34.9226C411.245 34.7663 411.333 34.5544 411.333 34.3334V33.5H414.667V34.3334C414.667 34.5544 414.754 34.7663 414.911 34.9226C415.067 35.0789 415.279 35.1667 415.5 35.1667C415.721 35.1667 415.933 35.0789 416.089 34.9226C416.245 34.7663 416.333 34.5544 416.333 34.3334V33.5H418V41.8334Z" fill="#111111"/>
<g clip-path="url(#clip0_2_1635)">
<path d="M24 24L36.2571 36.1286L48 48V24H24Z" fill="#F6F6F6"/>
<path d="M27.3429 27.1714L36.3 36.0429L44.7429 44.6572H27.3429V27.1714Z" fill="#F6F6F6"/>
<path d="M44.7997 44.7137L35.8425 35.8423L27.3997 27.228H44.7997V44.7137Z" fill="#4F2EE8"/>
<path d="M30.9429 30.7714L35.7 35.5286L41.1429 40.9714H30.9429V30.7714Z" fill="#4F2EE8"/>
<path d="M30.9429 30.7714L35.7 35.5286L41.1429 40.9714V30.7714H30.9429Z" fill="#F6F6F6"/>
</g>
<path d="M65.702 32.733C65.702 30.663 64.172 29.493 61.526 29.493H56V42.363H61.832C64.496 42.363 66.206 41.085 66.206 38.601C66.206 36.675 65.054 35.685 63.704 35.451V35.415C64.766 35.055 65.702 34.317 65.702 32.733ZM58.142 34.821V31.311H61.58C62.858 31.311 63.56 31.941 63.56 33.075C63.56 34.209 62.984 34.821 61.454 34.821H58.142ZM58.142 36.423H61.904C63.254 36.423 64.064 37.161 64.064 38.475C64.064 39.681 63.506 40.545 61.67 40.545H58.142V36.423Z" fill="black"/>
<path d="M71.7018 42.633C68.8218 42.633 67.0758 40.635 67.0758 37.773C67.0758 34.911 68.8218 32.913 71.7018 32.913C74.5818 32.913 76.3278 34.911 76.3278 37.773C76.3278 40.635 74.5818 42.633 71.7018 42.633ZM71.7018 41.085C73.5018 41.085 74.4378 39.663 74.4378 37.773C74.4378 35.865 73.5018 34.461 71.7018 34.461C69.9018 34.461 68.9658 35.865 68.9658 37.773C68.9658 39.663 69.9018 41.085 71.7018 41.085Z" fill="black"/>
<path d="M81.774 42.633C78.894 42.633 77.148 40.635 77.148 37.773C77.148 34.911 78.894 32.913 81.774 32.913C84.654 32.913 86.4 34.911 86.4 37.773C86.4 40.635 84.654 42.633 81.774 42.633ZM81.774 41.085C83.574 41.085 84.51 39.663 84.51 37.773C84.51 35.865 83.574 34.461 81.774 34.461C79.974 34.461 79.038 35.865 79.038 37.773C79.038 39.663 79.974 41.085 81.774 41.085Z" fill="black"/>
<path d="M87.7063 29.493V42.363H89.5963V39.033L90.8743 37.827L93.7723 42.363H96.0403L92.1703 36.585L95.6623 33.165H93.3403L89.5963 36.855V29.493H87.7063Z" fill="black"/>
<path d="M100.596 36.801C99.2644 36.495 98.2384 36.423 98.2384 35.487C98.2384 34.839 98.8504 34.407 99.9844 34.407C101.46 34.407 101.82 35.145 101.946 35.865H103.782C103.656 34.263 102.468 32.913 99.9664 32.913C97.6624 32.913 96.3304 34.119 96.3304 35.631C96.3304 37.719 98.3104 38.007 99.7684 38.349C101.118 38.673 102.216 38.763 102.216 39.915C102.216 40.491 101.658 41.139 100.344 41.139C98.4004 41.139 97.9684 40.293 97.8784 39.303H96.0424C96.1324 41.247 97.4104 42.633 100.38 42.633C102.612 42.633 104.124 41.535 104.124 39.771C104.124 37.575 102.288 37.197 100.596 36.801Z" fill="black"/>
<path d="M110.304 32.913C108.756 32.913 107.802 33.633 107.316 34.353H107.28V29.493H105.39V42.363H107.28V36.765C107.28 35.397 108.27 34.515 109.656 34.515C110.97 34.515 111.492 35.307 111.492 36.549V42.363H113.4V36.009C113.4 33.903 112.05 32.913 110.304 32.913Z" fill="black"/>
<path d="M119.196 41.085C117.522 41.085 116.532 39.807 116.532 38.259H123.588C123.588 34.983 122.13 32.913 119.16 32.913C116.388 32.913 114.642 34.785 114.642 37.773C114.642 40.653 116.388 42.633 119.25 42.633C121.608 42.633 122.976 41.301 123.444 39.555H121.554C121.392 40.113 120.762 41.085 119.196 41.085ZM119.16 34.407C120.69 34.407 121.698 35.433 121.698 36.855H116.532C116.532 35.433 117.63 34.407 119.16 34.407Z" fill="black"/>
<path d="M124.92 29.493V42.363H126.828V29.493H124.92Z" fill="black"/>
<path d="M133.001 31.041V29.493C132.623 29.421 132.209 29.367 131.741 29.367C130.229 29.367 129.401 30.051 129.401 31.995V33.165H128.087V34.713H129.401V42.363H131.309V34.713H133.001V33.165H131.309V32.157C131.309 31.113 131.777 30.987 133.001 31.041Z" fill="black"/>
<defs>
<clipPath id="clip0_2_1635">
<rect width="24" height="24" fill="white" transform="translate(24 24)"/>
</clipPath>
</defs>
</svg>
